# xmcd
#
# Track frame offsets:
#	150
#	12419
#	23643
#	34505
#	46241
#	60025
#	70386
#	83765
#	108467
#	118991
#	131408
#	142988
#	154748
#	173188
#	184020
#	194349
#	208011
#	218078
#
# Disc length: 3088 seconds
#
# Revision: 3
# Processed by: cddbd v1.5.2PL0 Copyright (c) Steve Scherf et al.
# Submitted via: EZCDAudioConverter 6.0.3.1
#
DISCID=f20c0e12
DTITLE=John Lee Hooker - FG049
DYEAR=2001
DGENRE=Blues
TTITLE0=I'm In The Mood
TTITLE1=Boom Boom
TTITLE2=No Shoes
TTITLE3=Boogie Chillen 2
TTITLE4=Hobo Béues
TTITLE5=Old Time Shimmy
TTITLE6=Whiskey And Wimmen
TTITLE7=Sugar Mama
TTITLE8=Dusty Road
TTITLE9=Crawling King Snake
TTITLE10=Little Wheel
TTITLE11=Good Rockin' Mama
TTITLE12=House Rent Boogie
TTITLE13=Send Me Your Pillow
TTITLE14=I Wanna Walk
TTITLE15=Trouble Blues
TTITLE16=Want Ad Blues
TTITLE17=Baby Lee
EXTD=
EXTT0=
EXTT1=
EXTT2=
EXTT3=
EXTT4=
EXTT5=
EXTT6=
EXTT7=
EXTT8=
EXTT9=
EXTT10=
EXTT11=
EXTT12=
EXTT13=
EXTT14=
EXTT15=
EXTT16=
EXTT17=
PLAYORDER=
